<svg id="visual" viewBox="0 0 900 600" width="900" height="600" xmlns="http://www.w3.org/2000/svg" xmlns:xlink="http://www.w3.org/1999/xlink" version="1.1"><rect x="0" y="0" width="900" height="600" fill="#001220"></rect><defs><linearGradient id="grad1_0" x1="33.3%" y1="0%" x2="100%" y2="100%"><stop offset="20%" stop-color="#001220" stop-opacity="1"></stop><stop offset="80%" stop-color="#001220" stop-opacity="1"></stop></linearGradient></defs><defs><linearGradient id="grad2_0" x1="0%" y1="0%" x2="66.7%" y2="100%"><stop offset="20%" stop-color="#001220" stop-opacity="1"></stop><stop offset="80%" stop-color="#001220" stop-opacity="1"></stop></linearGradient></defs><g transform="translate(900, 0)"><path d="M0 486.7C-58.7 456.7 -117.4 426.7 -163 393.6C-208.7 360.5 -241.4 324.3 -292.7 292.7C-344.1 261.2 -414.2 234.3 -449.7 186.3C-485.2 138.3 -486 69.1 -486.7 0L0 0Z" fill="#FBAE3C"></path></g><g transform="translate(0, 600)"><path d="M0 -486.7C66.3 -482 132.5 -477.2 186.3 -449.7C240 -422.2 281.3 -371.9 326 -326C370.7 -280 418.9 -238.4 446.2 -184.8C473.6 -131.2 480.2 -65.6 486.7 0L0 0Z" fill="#FBAE3C"></path></g></svg>