<svg id="visual" viewBox="0 0 900 600" width="900" height="600" xmlns="http://www.w3.org/2000/svg" xmlns:xlink="http://www.w3.org/1999/xlink" version="1.1"><g transform="translate(436.11097289553413 284.6861321667943)"><path d="M90.8 -138C123.3 -138.5 159.1 -125.5 169.5 -100.3C179.9 -75 165 -37.5 148.2 -9.7C131.5 18.2 112.9 36.3 101.1 59.1C89.3 81.9 84.1 109.4 68.4 133C52.7 156.6 26.3 176.3 6.1 165.7C-14.1 155 -28.1 114.1 -40.7 88.6C-53.2 63.2 -64.3 53.4 -86.6 41.2C-108.9 29 -142.4 14.5 -145 -1.5C-147.6 -17.5 -119.3 -35 -104.5 -60.1C-89.6 -85.2 -88.3 -118 -73.2 -127.4C-58 -136.8 -29 -122.9 0.1 -123C29.2 -123.2 58.3 -137.4 90.8 -138" fill="#BB004B"></path></g></svg>