<svg id="visual" viewBox="0 0 960 540" width="960" height="540" xmlns="http://www.w3.org/2000/svg" xmlns:xlink="http://www.w3.org/1999/xlink" version="1.1"><rect x="0" y="0" width="960" height="540" fill="#CCCCCC"></rect><g transform="translate(-0.061081461325841246 570.407901131705)"><path d="M279 -466.5C361 -435.9 426.4 -359.9 457.9 -274.6C489.3 -189.3 486.6 -94.7 467 -11.3C447.4 72 410.7 144 380.7 231.7C350.7 319.4 327.2 422.7 264.9 424.7C202.5 426.7 101.3 327.3 4.9 318.8C-91.5 310.4 -183 392.9 -219.2 375.9C-255.5 358.8 -236.4 242.1 -286 162.9C-335.6 83.7 -453.8 41.8 -477 -13.4C-500.3 -68.7 -428.5 -137.3 -380 -218.3C-331.4 -299.3 -305.9 -392.6 -246.5 -436.2C-187 -479.9 -93.5 -473.9 2.5 -478.3C98.5 -482.6 197 -497.2 279 -466.5" fill="#6600FF"></path></g></svg>