<svg id="visual" viewBox="0 0 960 540" width="960" height="540" xmlns="http://www.w3.org/2000/svg" xmlns:xlink="http://www.w3.org/1999/xlink" version="1.1"><g transform="translate(-50.94030594480512 543.6272033435124)" ><path d="M217.7 -349.7C285.4 -338 345.8 -286.2 357.8 -221.3C369.8 -156.3 333.4 -78.2 343.9 6.1C354.5 90.3 411.9 180.7 381.4 213.6C350.9 246.4 232.4 221.9 154.2 244.4C75.9 266.9 38 336.4 -25.2 380C-88.3 423.7 -176.7 441.3 -226.9 402.7C-277.1 364 -289.3 269 -288.3 192.5C-287.3 116 -273.1 58 -264.2 5.2C-255.2 -47.7 -251.5 -95.3 -258.9 -183C-266.4 -270.7 -285.1 -398.4 -243.8 -425.4C-202.5 -452.4 -101.3 -378.7 -13.1 -356C75 -333.2 150 -361.5 217.7 -349.7" fill="#0066FF"></path></g></svg>