<svg id="visual" viewBox="0 0 960 540" width="960" height="540" xmlns="http://www.w3.org/2000/svg" xmlns:xlink="http://www.w3.org/1999/xlink" version="1.1"><g transform="translate(950.7712958582999 27.61936906500199)"><path d="M224.8 -389.1C307.2 -341.7 400.8 -313.6 425.3 -252C449.7 -190.3 404.8 -95.2 387.7 -9.9C370.5 75.3 381 150.7 371.6 238.4C362.2 326 333 426.1 267.7 426.4C202.5 426.7 101.3 327.3 20.5 291.7C-60.2 256.1 -120.3 284.4 -173.7 277.2C-227.1 270.1 -273.8 227.5 -290.7 175.4C-307.6 123.3 -294.8 61.7 -326.9 -18.5C-358.9 -98.7 -435.8 -197.3 -408 -230.5C-380.1 -263.7 -247.6 -231.5 -162.1 -277.1C-76.7 -322.8 -38.3 -446.4 16.4 -474.8C71.2 -503.3 142.3 -436.5 224.8 -389.1" fill="#6600FF"></path></g></svg>