<svg id="visual" viewBox="0 0 900 300" width="900" height="300" xmlns="http://www.w3.org/2000/svg" xmlns:xlink="http://www.w3.org/1999/xlink" version="1.1"><rect x="0" y="0" width="900" height="300" fill="#001220"></rect><path d="M0 80L21.5 82.8C43 85.7 86 91.3 128.8 93.2C171.7 95 214.3 93 257.2 93.7C300 94.3 343 97.7 385.8 101.2C428.7 104.7 471.3 108.3 514.2 109.8C557 111.3 600 110.7 642.8 105.3C685.7 100 728.3 90 771.2 88.3C814 86.7 857 93.3 878.5 96.7L900 100L900 0L878.5 0C857 0 814 0 771.2 0C728.3 0 685.7 0 642.8 0C600 0 557 0 514.2 0C471.3 0 428.7 0 385.8 0C343 0 300 0 257.2 0C214.3 0 171.7 0 128.8 0C86 0 43 0 21.5 0L0 0Z" fill="#c62368"></path><path d="M0 73L21.5 76.8C43 80.7 86 88.3 128.8 88.3C171.7 88.3 214.3 80.7 257.2 81.2C300 81.7 343 90.3 385.8 90.3C428.7 90.3 471.3 81.7 514.2 79.5C557 77.3 600 81.7 642.8 86C685.7 90.3 728.3 94.7 771.2 90.8C814 87 857 75 878.5 69L900 63L900 0L878.5 0C857 0 814 0 771.2 0C728.3 0 685.7 0 642.8 0C600 0 557 0 514.2 0C471.3 0 428.7 0 385.8 0C343 0 300 0 257.2 0C214.3 0 171.7 0 128.8 0C86 0 43 0 21.5 0L0 0Z" fill="#e95667"></path><path d="M0 60L21.5 57.8C43 55.7 86 51.3 128.8 54.3C171.7 57.3 214.3 67.7 257.2 70.7C300 73.7 343 69.3 385.8 67.2C428.7 65 471.3 65 514.2 61.7C557 58.3 600 51.7 642.8 48.8C685.7 46 728.3 47 771.2 49.8C814 52.7 857 57.3 878.5 59.7L900 62L900 0L878.5 0C857 0 814 0 771.2 0C728.3 0 685.7 0 642.8 0C600 0 557 0 514.2 0C471.3 0 428.7 0 385.8 0C343 0 300 0 257.2 0C214.3 0 171.7 0 128.8 0C86 0 43 0 21.5 0L0 0Z" fill="#fa7268"></path><path d="M0 30L21.5 30.3C43 30.7 86 31.3 128.8 35.2C171.7 39 214.3 46 257.2 50.3C300 54.7 343 56.3 385.8 52.2C428.7 48 471.3 38 514.2 37C557 36 600 44 642.8 46.7C685.7 49.3 728.3 46.7 771.2 44.8C814 43 857 42 878.5 41.5L900 41L900 0L878.5 0C857 0 814 0 771.2 0C728.3 0 685.7 0 642.8 0C600 0 557 0 514.2 0C471.3 0 428.7 0 385.8 0C343 0 300 0 257.2 0C214.3 0 171.7 0 128.8 0C86 0 43 0 21.5 0L0 0Z" fill="#e95667"></path><path d="M0 21L21.5 22.2C43 23.3 86 25.7 128.8 28.2C171.7 30.7 214.3 33.3 257.2 33.3C300 33.3 343 30.7 385.8 26.8C428.7 23 471.3 18 514.2 16.5C557 15 600 17 642.8 18.8C685.7 20.7 728.3 22.3 771.2 23.2C814 24 857 24 878.5 24L900 24L900 0L878.5 0C857 0 814 0 771.2 0C728.3 0 685.7 0 642.8 0C600 0 557 0 514.2 0C471.3 0 428.7 0 385.8 0C343 0 300 0 257.2 0C214.3 0 171.7 0 128.8 0C86 0 43 0 21.5 0L0 0Z" fill="#c62368"></path></svg>